<svg xmlns="http://www.w3.org/2000/svg" viewBox="0 0 32 32"><defs><style>.cls-1{fill:#fff;}</style></defs><title>Social Media Logos (32x32)</title><g id="Github"><path class="cls-1" d="M31.5,16.41A15.5,15.5,0,1,0,11,31.07a1.49,1.49,0,0,0,.79-1.15c0-.86,0-3.05,0-3.05A10.43,10.43,0,0,1,10.1,27a3.52,3.52,0,0,1-3.55-2.4,4.12,4.12,0,0,0-1.74-2.06c-.4-.26-.49-.57,0-.65,2.15-.4,2.69,2.41,4.12,2.86a4,4,0,0,0,3-.24,3.08,3.08,0,0,1,1.23-2c-3.64-.35-5.8-1.61-6.91-3.63l-.12-.22L5.8,18l-.08-.23a10.9,10.9,0,0,1-.5-3.51A6,6,0,0,1,6.93,9.83a6.23,6.23,0,0,1,.26-4.47S8.77,5,11.75,7.15c1.61-.68,5.91-.74,7.94-.15,1.25-.82,3.54-2,4.46-1.66.25.4.79,1.57.33,4.12a7.22,7.22,0,0,1,1.94,5.14,13.07,13.07,0,0,1-.4,3.19l-.13.46-.16.42-.1.22c-1.08,2.36-3.29,3.24-6.87,3.6,1.16.73,1.49,1.64,1.49,4.1s0,2.8,0,3.37A1.53,1.53,0,0,0,21,31.09,15.52,15.52,0,0,0,31.5,16.41Z"/></g></svg>