<svg xmlns="http://www.w3.org/2000/svg" viewBox="0 0 32 32"><defs><style>.cls-1{fill:#fff;fill-rule:evenodd;}</style></defs><title>Social Media Logos (32x32)</title><g id="Instagram"><path class="cls-1" d="M9.31,1.5H22.69a7.87,7.87,0,0,1,7.84,7.84V22.66a7.87,7.87,0,0,1-7.84,7.84H9.31a7.87,7.87,0,0,1-7.84-7.84V9.34A7.87,7.87,0,0,1,9.31,1.5Zm14.5,5.06h0a1.69,1.69,0,0,1,1.66,1.67h0a1.68,1.68,0,0,1-1.66,1.66h0a1.64,1.64,0,0,1-1.67-1.66h0a1.65,1.65,0,0,1,1.67-1.67ZM16,8.09H16A8,8,0,0,1,23.94,16h0A8,8,0,0,1,16,23.91H16A7.89,7.89,0,0,1,8.13,16h0A7.93,7.93,0,0,1,16,8.09Zm0,2.71H16A5.24,5.24,0,0,1,21.24,16h0A5.26,5.26,0,0,1,16,21.27H16A5.26,5.26,0,0,1,10.76,16h0A5.24,5.24,0,0,1,16,10.8ZM9.37,4H22.63A5.42,5.42,0,0,1,28,9.41V22.59A5.42,5.42,0,0,1,22.63,28H9.37A5.42,5.42,0,0,1,4,22.59V9.41A5.42,5.42,0,0,1,9.37,4Z"/></g></svg>