<svg xmlns="http://www.w3.org/2000/svg" viewBox="0 0 32 32"><defs><style>.cls-1{fill:#fff;fill-rule:evenodd;}</style></defs><title>Social Media Logos (32x32)</title><g id="Youtube"><path class="cls-1" d="M27.61,8.11A6.11,6.11,0,0,1,23.89,6,7.14,7.14,0,0,1,22,1H16.85V21.54a4.38,4.38,0,0,1-4.44,4.37,4.51,4.51,0,0,1-3.58-1.82A4.31,4.31,0,0,1,8,21.54a4.37,4.37,0,0,1,4.37-4.37,4.23,4.23,0,0,1,1.31.2V12.15A8.67,8.67,0,0,0,12.41,12h-.19A9.51,9.51,0,0,0,5.43,28a9.71,9.71,0,0,0,7,3A9.53,9.53,0,0,0,22,21.54V10.85a9.49,9.49,0,0,0,7.11,2.41V8.11A2.93,2.93,0,0,1,27.61,8.11Z"/></g></svg>