<svg xmlns="http://www.w3.org/2000/svg" viewBox="0 0 32 32"><defs><style>.cls-1{fill:#fff;fill-rule:evenodd;}</style></defs><title>Social Media Logos (32x32)</title><g id="Whatsapp"><path class="cls-1" d="M10.67,9.15c.84-.54,1.37-.16,1.68.68l.76,2s.53,1.07-.84,2.13c-.23.16-.23.16-.15.54.3.91,1.52,3.65,5.4,5.78.38.23.46.23.84-.07l1-1c.69-.61,1.07-.84,1.68-.38.45.3.91.68,1.37,1s1.21.83.45,1.75l-.68.84a2.62,2.62,0,0,1-3.12,1A14.34,14.34,0,0,1,8.84,13.64a3.82,3.82,0,0,1,1.83-4.49ZM16,1a15,15,0,0,1,0,30,14.55,14.55,0,0,1-6.32-1.37L1.69,31l1.06-7.92-.07-.15A15,15,0,0,1,16,1ZM6.56,27.65l2.13-.38L10,27a12.4,12.4,0,0,0,6,1.52A12.56,12.56,0,1,0,3.44,16a12.85,12.85,0,0,0,2,6.78l-.16,1.14L5,26.2,4.73,28Z"/></g></svg>