<svg xmlns="http://www.w3.org/2000/svg" viewBox="0 0 32 32"><defs><style>.cls-1{fill:#fff;fill-rule:evenodd;}</style></defs><title>Social Media Logos (32x32)</title><g id="Youtube"><path class="cls-1" d="M30.65,10.05C30.18,6.6,28.43,6,25,5.73c-3-.24-6.36-.35-9-.35s-6.07.11-9,.35C3.57,6,1.76,6.6,1.29,10.05A58.38,58.38,0,0,0,1,16,57.47,57.47,0,0,0,1.29,22c.47,3.51,2.28,4,5.72,4.32,2.92.29,6.36.35,9,.35s6-.06,9-.35c3.44-.29,5.19-.81,5.66-4.32A43.37,43.37,0,0,0,31,16,44,44,0,0,0,30.65,10.05ZM13,20.55v-9L20.79,16Z"/></g></svg>